<mxfile host="app.diagrams.net" modified="2023-07-22T13:26:08.799Z" agent="Mozilla/5.0 (Windows NT 10.0; Win64; x64; rv:109.0) Gecko/20100101 Firefox/115.0" etag="zormxf8ZNKUTYabpHpTk" version="21.6.5" type="device">
  <diagram name="Страница 1" id="cByJRXVB2VNbHg6j7xqN">
    <mxGraphModel dx="2049" dy="2246" grid="1" gridSize="10" guides="1" tooltips="1" connect="1" arrows="1" fold="1" page="1" pageScale="1" pageWidth="827" pageHeight="1169" math="0" shadow="0">
      <root>
        <mxCell id="0" />
        <mxCell id="1" parent="0" />
        <mxCell id="BvyJArs3mBASUN0KN0iH-89" value="" style="rounded=1;whiteSpace=wrap;html=1;dashed=1;fillColor=none;" parent="1" vertex="1">
          <mxGeometry x="280" y="-1114" width="1000" height="1240" as="geometry" />
        </mxCell>
        <mxCell id="nxlRNslHRVkKdTCAfa-e-47" style="edgeStyle=orthogonalEdgeStyle;rounded=0;orthogonalLoop=1;jettySize=auto;html=1;exitX=1;exitY=0;exitDx=0;exitDy=0;entryX=0;entryY=0.5;entryDx=0;entryDy=0;curved=1;dashed=1;strokeWidth=2;fillColor=#ffe6cc;strokeColor=#d79b00;" edge="1" parent="1" source="BvyJArs3mBASUN0KN0iH-90" target="nxlRNslHRVkKdTCAfa-e-36">
          <mxGeometry relative="1" as="geometry" />
        </mxCell>
        <mxCell id="nxlRNslHRVkKdTCAfa-e-48" style="edgeStyle=orthogonalEdgeStyle;rounded=0;orthogonalLoop=1;jettySize=auto;html=1;exitX=1;exitY=0.25;exitDx=0;exitDy=0;entryX=0;entryY=0.5;entryDx=0;entryDy=0;curved=1;dashed=1;strokeWidth=2;fillColor=#ffe6cc;strokeColor=#d79b00;" edge="1" parent="1" source="BvyJArs3mBASUN0KN0iH-90" target="BvyJArs3mBASUN0KN0iH-91">
          <mxGeometry relative="1" as="geometry" />
        </mxCell>
        <mxCell id="nxlRNslHRVkKdTCAfa-e-49" style="edgeStyle=orthogonalEdgeStyle;rounded=0;orthogonalLoop=1;jettySize=auto;html=1;exitX=1;exitY=0.5;exitDx=0;exitDy=0;entryX=0;entryY=0.75;entryDx=0;entryDy=0;curved=1;dashed=1;strokeWidth=2;fillColor=#ffe6cc;strokeColor=#d79b00;" edge="1" parent="1" source="BvyJArs3mBASUN0KN0iH-90" target="nxlRNslHRVkKdTCAfa-e-9">
          <mxGeometry relative="1" as="geometry" />
        </mxCell>
        <mxCell id="nxlRNslHRVkKdTCAfa-e-50" style="edgeStyle=orthogonalEdgeStyle;rounded=0;orthogonalLoop=1;jettySize=auto;html=1;exitX=1;exitY=0.75;exitDx=0;exitDy=0;entryX=0;entryY=0.5;entryDx=0;entryDy=0;curved=1;dashed=1;strokeWidth=2;fillColor=#ffe6cc;strokeColor=#d79b00;" edge="1" parent="1" source="BvyJArs3mBASUN0KN0iH-90" target="nxlRNslHRVkKdTCAfa-e-18">
          <mxGeometry relative="1" as="geometry" />
        </mxCell>
        <mxCell id="nxlRNslHRVkKdTCAfa-e-51" style="edgeStyle=orthogonalEdgeStyle;rounded=0;orthogonalLoop=1;jettySize=auto;html=1;exitX=1;exitY=1;exitDx=0;exitDy=0;entryX=0;entryY=0.5;entryDx=0;entryDy=0;curved=1;dashed=1;strokeWidth=2;fillColor=#ffe6cc;strokeColor=#d79b00;" edge="1" parent="1" source="BvyJArs3mBASUN0KN0iH-90" target="nxlRNslHRVkKdTCAfa-e-27">
          <mxGeometry relative="1" as="geometry" />
        </mxCell>
        <mxCell id="BvyJArs3mBASUN0KN0iH-90" value="" style="rounded=1;whiteSpace=wrap;html=1;dashed=1;fillColor=none;" parent="1" vertex="1">
          <mxGeometry x="300" y="-524" width="190" height="120" as="geometry" />
        </mxCell>
        <mxCell id="nxlRNslHRVkKdTCAfa-e-56" style="edgeStyle=orthogonalEdgeStyle;rounded=0;orthogonalLoop=1;jettySize=auto;html=1;exitX=1;exitY=0.25;exitDx=0;exitDy=0;entryX=1;entryY=0.5;entryDx=0;entryDy=0;strokeWidth=2;dashed=1;curved=1;fillColor=#dae8fc;strokeColor=#6c8ebf;" edge="1" parent="1" source="BvyJArs3mBASUN0KN0iH-91" target="nxlRNslHRVkKdTCAfa-e-9">
          <mxGeometry relative="1" as="geometry">
            <Array as="points">
              <mxPoint x="960" y="-794" />
              <mxPoint x="960" y="-504" />
            </Array>
          </mxGeometry>
        </mxCell>
        <mxCell id="nxlRNslHRVkKdTCAfa-e-57" style="edgeStyle=orthogonalEdgeStyle;rounded=0;orthogonalLoop=1;jettySize=auto;html=1;exitX=1;exitY=0.75;exitDx=0;exitDy=0;entryX=1;entryY=0.25;entryDx=0;entryDy=0;strokeWidth=2;dashed=1;curved=1;fillColor=#dae8fc;strokeColor=#6c8ebf;" edge="1" parent="1" source="BvyJArs3mBASUN0KN0iH-91" target="nxlRNslHRVkKdTCAfa-e-27">
          <mxGeometry relative="1" as="geometry">
            <Array as="points">
              <mxPoint x="1070" y="-694" />
              <mxPoint x="1070" y="-74" />
            </Array>
          </mxGeometry>
        </mxCell>
        <mxCell id="nxlRNslHRVkKdTCAfa-e-58" style="edgeStyle=orthogonalEdgeStyle;rounded=0;orthogonalLoop=1;jettySize=auto;html=1;exitX=1;exitY=0.5;exitDx=0;exitDy=0;entryX=1;entryY=0.5;entryDx=0;entryDy=0;strokeWidth=2;dashed=1;curved=1;fillColor=#dae8fc;strokeColor=#6c8ebf;" edge="1" parent="1" source="BvyJArs3mBASUN0KN0iH-91" target="nxlRNslHRVkKdTCAfa-e-18">
          <mxGeometry relative="1" as="geometry">
            <Array as="points">
              <mxPoint x="1010" y="-744" />
              <mxPoint x="1010" y="-264" />
            </Array>
          </mxGeometry>
        </mxCell>
        <mxCell id="BvyJArs3mBASUN0KN0iH-91" value="" style="rounded=1;whiteSpace=wrap;html=1;dashed=1;fillColor=none;" parent="1" vertex="1">
          <mxGeometry x="600" y="-844" width="280" height="200" as="geometry" />
        </mxCell>
        <mxCell id="BvyJArs3mBASUN0KN0iH-97" value="" style="group" parent="1" vertex="1" connectable="0">
          <mxGeometry x="50" y="-504" width="190" height="80" as="geometry" />
        </mxCell>
        <mxCell id="BvyJArs3mBASUN0KN0iH-85" value="" style="group" parent="BvyJArs3mBASUN0KN0iH-97" vertex="1" connectable="0">
          <mxGeometry width="70" height="80" as="geometry" />
        </mxCell>
        <mxCell id="BvyJArs3mBASUN0KN0iH-80" value="" style="shape=umlActor;verticalLabelPosition=bottom;verticalAlign=top;html=1;outlineConnect=0;" parent="BvyJArs3mBASUN0KN0iH-85" vertex="1">
          <mxGeometry width="30" height="60" as="geometry" />
        </mxCell>
        <mxCell id="BvyJArs3mBASUN0KN0iH-81" value="" style="shape=umlActor;verticalLabelPosition=bottom;verticalAlign=top;html=1;outlineConnect=0;" parent="BvyJArs3mBASUN0KN0iH-85" vertex="1">
          <mxGeometry x="40" y="20" width="30" height="60" as="geometry" />
        </mxCell>
        <mxCell id="BvyJArs3mBASUN0KN0iH-82" value="Clients" style="shape=umlActor;verticalLabelPosition=bottom;verticalAlign=top;html=1;outlineConnect=0;" parent="BvyJArs3mBASUN0KN0iH-85" vertex="1">
          <mxGeometry x="20" y="10" width="30" height="60" as="geometry" />
        </mxCell>
        <mxCell id="BvyJArs3mBASUN0KN0iH-86" value="" style="endArrow=classic;html=1;rounded=0;entryX=0.963;entryY=1;entryDx=0;entryDy=0;entryPerimeter=0;" parent="BvyJArs3mBASUN0KN0iH-97" target="BvyJArs3mBASUN0KN0iH-87" edge="1">
          <mxGeometry width="50" height="50" relative="1" as="geometry">
            <mxPoint x="90" y="39.829999999999984" as="sourcePoint" />
            <mxPoint x="150" y="39.829999999999984" as="targetPoint" />
          </mxGeometry>
        </mxCell>
        <mxCell id="BvyJArs3mBASUN0KN0iH-87" value="&lt;font style=&quot;font-size: 10px;&quot;&gt;HTTP Requests&lt;/font&gt;" style="text;html=1;align=center;verticalAlign=middle;resizable=0;points=[];autosize=1;strokeColor=none;fillColor=none;" parent="BvyJArs3mBASUN0KN0iH-97" vertex="1">
          <mxGeometry x="90" y="10" width="100" height="30" as="geometry" />
        </mxCell>
        <mxCell id="BvyJArs3mBASUN0KN0iH-106" value="&lt;font style=&quot;font-size: 10px;&quot;&gt;PostgreSQL&lt;/font&gt;" style="shape=datastore;whiteSpace=wrap;html=1;fillColor=#dae8fc;strokeColor=#6c8ebf;" parent="1" vertex="1">
          <mxGeometry x="800" y="-774" width="60" height="60" as="geometry" />
        </mxCell>
        <mxCell id="BvyJArs3mBASUN0KN0iH-111" value="My feed" style="swimlane;fontStyle=0;childLayout=stackLayout;horizontal=1;startSize=30;horizontalStack=0;resizeParent=1;resizeParentMax=0;resizeLast=0;collapsible=1;marginBottom=0;whiteSpace=wrap;html=1;fillColor=default;" parent="1" vertex="1">
          <mxGeometry x="620" y="-64" width="100" height="60" as="geometry">
            <mxRectangle x="610" y="250" width="60" height="30" as="alternateBounds" />
          </mxGeometry>
        </mxCell>
        <mxCell id="BvyJArs3mBASUN0KN0iH-112" value="Subscriber" style="text;strokeColor=#666666;fillColor=#f5f5f5;align=left;verticalAlign=middle;spacingLeft=4;spacingRight=4;overflow=hidden;points=[[0,0.5],[1,0.5]];portConstraint=eastwest;rotatable=0;whiteSpace=wrap;html=1;fontColor=#333333;" parent="BvyJArs3mBASUN0KN0iH-111" vertex="1">
          <mxGeometry y="30" width="100" height="30" as="geometry" />
        </mxCell>
        <mxCell id="nxlRNslHRVkKdTCAfa-e-8" value="" style="group" vertex="1" connectable="0" parent="1">
          <mxGeometry x="730" y="-754" width="50" height="20" as="geometry" />
        </mxCell>
        <mxCell id="nxlRNslHRVkKdTCAfa-e-5" value="" style="endArrow=classic;html=1;rounded=0;" edge="1" parent="nxlRNslHRVkKdTCAfa-e-8">
          <mxGeometry width="50" height="50" relative="1" as="geometry">
            <mxPoint as="sourcePoint" />
            <mxPoint x="50" as="targetPoint" />
          </mxGeometry>
        </mxCell>
        <mxCell id="nxlRNslHRVkKdTCAfa-e-7" value="" style="endArrow=classic;html=1;rounded=0;" edge="1" parent="nxlRNslHRVkKdTCAfa-e-8">
          <mxGeometry width="50" height="50" relative="1" as="geometry">
            <mxPoint x="50" y="20" as="sourcePoint" />
            <mxPoint y="20" as="targetPoint" />
          </mxGeometry>
        </mxCell>
        <mxCell id="nxlRNslHRVkKdTCAfa-e-9" value="" style="rounded=1;whiteSpace=wrap;html=1;dashed=1;fillColor=none;" vertex="1" parent="1">
          <mxGeometry x="600" y="-604" width="280" height="200" as="geometry" />
        </mxCell>
        <mxCell id="nxlRNslHRVkKdTCAfa-e-10" value="MongoDb" style="shape=datastore;whiteSpace=wrap;html=1;fillColor=#d5e8d4;strokeColor=#82b366;" vertex="1" parent="1">
          <mxGeometry x="800" y="-534" width="60" height="60" as="geometry" />
        </mxCell>
        <mxCell id="nxlRNslHRVkKdTCAfa-e-11" value="Blog" style="swimlane;fontStyle=0;childLayout=stackLayout;horizontal=1;startSize=30;horizontalStack=0;resizeParent=1;resizeParentMax=0;resizeLast=0;collapsible=1;marginBottom=0;whiteSpace=wrap;html=1;fillColor=default;" vertex="1" parent="1">
          <mxGeometry x="620" y="-789" width="100" height="90" as="geometry">
            <mxRectangle x="610" y="250" width="60" height="30" as="alternateBounds" />
          </mxGeometry>
        </mxCell>
        <mxCell id="nxlRNslHRVkKdTCAfa-e-12" value="&lt;pre style=&quot;text-align:left&quot; id=&quot;tw-target-text&quot; data-placeholder=&quot;Translation&quot; class=&quot;tw-data-text tw-text-large tw-ta&quot;&gt;Publication&lt;/pre&gt;" style="text;strokeColor=#666666;fillColor=#f5f5f5;align=left;verticalAlign=middle;spacingLeft=4;spacingRight=4;overflow=hidden;points=[[0,0.5],[1,0.5]];portConstraint=eastwest;rotatable=0;whiteSpace=wrap;html=1;fontColor=#333333;" vertex="1" parent="nxlRNslHRVkKdTCAfa-e-11">
          <mxGeometry y="30" width="100" height="30" as="geometry" />
        </mxCell>
        <mxCell id="nxlRNslHRVkKdTCAfa-e-13" value="Lists" style="text;strokeColor=#666666;fillColor=#f5f5f5;align=left;verticalAlign=middle;spacingLeft=4;spacingRight=4;overflow=hidden;points=[[0,0.5],[1,0.5]];portConstraint=eastwest;rotatable=0;whiteSpace=wrap;html=1;fontColor=#333333;" vertex="1" parent="nxlRNslHRVkKdTCAfa-e-11">
          <mxGeometry y="60" width="100" height="30" as="geometry" />
        </mxCell>
        <mxCell id="nxlRNslHRVkKdTCAfa-e-15" value="" style="group" vertex="1" connectable="0" parent="1">
          <mxGeometry x="730" y="-514" width="50" height="20" as="geometry" />
        </mxCell>
        <mxCell id="nxlRNslHRVkKdTCAfa-e-16" value="" style="endArrow=classic;html=1;rounded=0;" edge="1" parent="nxlRNslHRVkKdTCAfa-e-15">
          <mxGeometry width="50" height="50" relative="1" as="geometry">
            <mxPoint as="sourcePoint" />
            <mxPoint x="50" as="targetPoint" />
          </mxGeometry>
        </mxCell>
        <mxCell id="nxlRNslHRVkKdTCAfa-e-17" value="" style="endArrow=classic;html=1;rounded=0;" edge="1" parent="nxlRNslHRVkKdTCAfa-e-15">
          <mxGeometry width="50" height="50" relative="1" as="geometry">
            <mxPoint x="50" y="20" as="sourcePoint" />
            <mxPoint y="20" as="targetPoint" />
          </mxGeometry>
        </mxCell>
        <mxCell id="nxlRNslHRVkKdTCAfa-e-18" value="" style="rounded=1;whiteSpace=wrap;html=1;dashed=1;fillColor=none;" vertex="1" parent="1">
          <mxGeometry x="600" y="-364" width="280" height="200" as="geometry" />
        </mxCell>
        <mxCell id="nxlRNslHRVkKdTCAfa-e-20" value="Notify" style="swimlane;fontStyle=0;childLayout=stackLayout;horizontal=1;startSize=30;horizontalStack=0;resizeParent=1;resizeParentMax=0;resizeLast=0;collapsible=1;marginBottom=0;whiteSpace=wrap;html=1;fillColor=default;" vertex="1" parent="1">
          <mxGeometry x="620" y="-309" width="100" height="90" as="geometry">
            <mxRectangle x="610" y="250" width="60" height="30" as="alternateBounds" />
          </mxGeometry>
        </mxCell>
        <mxCell id="nxlRNslHRVkKdTCAfa-e-21" value="Subscriber" style="text;strokeColor=#666666;fillColor=#f5f5f5;align=left;verticalAlign=middle;spacingLeft=4;spacingRight=4;overflow=hidden;points=[[0,0.5],[1,0.5]];portConstraint=eastwest;rotatable=0;whiteSpace=wrap;html=1;fontColor=#333333;" vertex="1" parent="nxlRNslHRVkKdTCAfa-e-20">
          <mxGeometry y="30" width="100" height="30" as="geometry" />
        </mxCell>
        <mxCell id="nxlRNslHRVkKdTCAfa-e-22" value="Mail" style="text;strokeColor=#666666;fillColor=#f5f5f5;align=left;verticalAlign=middle;spacingLeft=4;spacingRight=4;overflow=hidden;points=[[0,0.5],[1,0.5]];portConstraint=eastwest;rotatable=0;whiteSpace=wrap;html=1;fontColor=#333333;" vertex="1" parent="nxlRNslHRVkKdTCAfa-e-20">
          <mxGeometry y="60" width="100" height="30" as="geometry" />
        </mxCell>
        <mxCell id="nxlRNslHRVkKdTCAfa-e-24" value="" style="group" vertex="1" connectable="0" parent="1">
          <mxGeometry x="730" y="-274" width="50" height="20" as="geometry" />
        </mxCell>
        <mxCell id="nxlRNslHRVkKdTCAfa-e-25" value="" style="endArrow=classic;html=1;rounded=0;" edge="1" parent="nxlRNslHRVkKdTCAfa-e-24">
          <mxGeometry width="50" height="50" relative="1" as="geometry">
            <mxPoint as="sourcePoint" />
            <mxPoint x="50" as="targetPoint" />
          </mxGeometry>
        </mxCell>
        <mxCell id="nxlRNslHRVkKdTCAfa-e-26" value="" style="endArrow=classic;html=1;rounded=0;" edge="1" parent="nxlRNslHRVkKdTCAfa-e-24">
          <mxGeometry width="50" height="50" relative="1" as="geometry">
            <mxPoint x="50" y="20" as="sourcePoint" />
            <mxPoint y="20" as="targetPoint" />
          </mxGeometry>
        </mxCell>
        <mxCell id="nxlRNslHRVkKdTCAfa-e-27" value="" style="rounded=1;whiteSpace=wrap;html=1;dashed=1;fillColor=none;" vertex="1" parent="1">
          <mxGeometry x="600" y="-124" width="280" height="200" as="geometry" />
        </mxCell>
        <mxCell id="nxlRNslHRVkKdTCAfa-e-28" value="Mongodb" style="shape=datastore;whiteSpace=wrap;html=1;fillColor=#d5e8d4;strokeColor=#82b366;" vertex="1" parent="1">
          <mxGeometry x="800" y="-64" width="60" height="60" as="geometry" />
        </mxCell>
        <mxCell id="nxlRNslHRVkKdTCAfa-e-29" value="Comment" style="swimlane;fontStyle=0;childLayout=stackLayout;horizontal=1;startSize=30;horizontalStack=0;resizeParent=1;resizeParentMax=0;resizeLast=0;collapsible=1;marginBottom=0;whiteSpace=wrap;html=1;fillColor=default;" vertex="1" parent="1">
          <mxGeometry x="620" y="-549" width="100" height="90" as="geometry">
            <mxRectangle x="610" y="250" width="60" height="30" as="alternateBounds" />
          </mxGeometry>
        </mxCell>
        <mxCell id="nxlRNslHRVkKdTCAfa-e-30" value="Likes" style="text;strokeColor=#666666;fillColor=#f5f5f5;align=left;verticalAlign=middle;spacingLeft=4;spacingRight=4;overflow=hidden;points=[[0,0.5],[1,0.5]];portConstraint=eastwest;rotatable=0;whiteSpace=wrap;html=1;fontColor=#333333;" vertex="1" parent="nxlRNslHRVkKdTCAfa-e-29">
          <mxGeometry y="30" width="100" height="30" as="geometry" />
        </mxCell>
        <mxCell id="nxlRNslHRVkKdTCAfa-e-31" value="Comments" style="text;strokeColor=#666666;fillColor=#f5f5f5;align=left;verticalAlign=middle;spacingLeft=4;spacingRight=4;overflow=hidden;points=[[0,0.5],[1,0.5]];portConstraint=eastwest;rotatable=0;whiteSpace=wrap;html=1;fontColor=#333333;" vertex="1" parent="nxlRNslHRVkKdTCAfa-e-29">
          <mxGeometry y="60" width="100" height="30" as="geometry" />
        </mxCell>
        <mxCell id="nxlRNslHRVkKdTCAfa-e-33" value="" style="group" vertex="1" connectable="0" parent="1">
          <mxGeometry x="730" y="-44" width="50" height="20" as="geometry" />
        </mxCell>
        <mxCell id="nxlRNslHRVkKdTCAfa-e-34" value="" style="endArrow=classic;html=1;rounded=0;" edge="1" parent="nxlRNslHRVkKdTCAfa-e-33">
          <mxGeometry width="50" height="50" relative="1" as="geometry">
            <mxPoint as="sourcePoint" />
            <mxPoint x="50" as="targetPoint" />
          </mxGeometry>
        </mxCell>
        <mxCell id="nxlRNslHRVkKdTCAfa-e-35" value="" style="endArrow=classic;html=1;rounded=0;" edge="1" parent="nxlRNslHRVkKdTCAfa-e-33">
          <mxGeometry width="50" height="50" relative="1" as="geometry">
            <mxPoint x="50" y="20" as="sourcePoint" />
            <mxPoint y="20" as="targetPoint" />
          </mxGeometry>
        </mxCell>
        <mxCell id="nxlRNslHRVkKdTCAfa-e-52" style="edgeStyle=orthogonalEdgeStyle;rounded=0;orthogonalLoop=1;jettySize=auto;html=1;exitX=1;exitY=0.5;exitDx=0;exitDy=0;entryX=1;entryY=0.25;entryDx=0;entryDy=0;strokeWidth=2;dashed=1;curved=1;fillColor=#d5e8d4;strokeColor=#82b366;" edge="1" parent="1" source="nxlRNslHRVkKdTCAfa-e-36" target="nxlRNslHRVkKdTCAfa-e-9">
          <mxGeometry relative="1" as="geometry">
            <Array as="points">
              <mxPoint x="1070" y="-984" />
              <mxPoint x="1070" y="-554" />
            </Array>
          </mxGeometry>
        </mxCell>
        <mxCell id="nxlRNslHRVkKdTCAfa-e-53" style="edgeStyle=orthogonalEdgeStyle;rounded=0;orthogonalLoop=1;jettySize=auto;html=1;exitX=1;exitY=0.25;exitDx=0;exitDy=0;entryX=1;entryY=0.25;entryDx=0;entryDy=0;strokeWidth=2;dashed=1;curved=1;fillColor=#d5e8d4;strokeColor=#82b366;" edge="1" parent="1" source="nxlRNslHRVkKdTCAfa-e-36" target="nxlRNslHRVkKdTCAfa-e-18">
          <mxGeometry relative="1" as="geometry">
            <Array as="points">
              <mxPoint x="1170" y="-1034" />
              <mxPoint x="1170" y="-314" />
            </Array>
          </mxGeometry>
        </mxCell>
        <mxCell id="nxlRNslHRVkKdTCAfa-e-55" style="edgeStyle=orthogonalEdgeStyle;rounded=0;orthogonalLoop=1;jettySize=auto;html=1;exitX=1;exitY=0.75;exitDx=0;exitDy=0;entryX=1;entryY=0.5;entryDx=0;entryDy=0;strokeWidth=2;dashed=1;curved=1;fillColor=#d5e8d4;strokeColor=#82b366;" edge="1" parent="1" source="nxlRNslHRVkKdTCAfa-e-36" target="nxlRNslHRVkKdTCAfa-e-27">
          <mxGeometry relative="1" as="geometry">
            <Array as="points">
              <mxPoint x="1200" y="-934" />
              <mxPoint x="1200" y="-24" />
            </Array>
          </mxGeometry>
        </mxCell>
        <mxCell id="nxlRNslHRVkKdTCAfa-e-36" value="" style="rounded=1;whiteSpace=wrap;html=1;dashed=1;fillColor=none;" vertex="1" parent="1">
          <mxGeometry x="600" y="-1084" width="280" height="200" as="geometry" />
        </mxCell>
        <mxCell id="nxlRNslHRVkKdTCAfa-e-37" value="MongoDb" style="shape=datastore;whiteSpace=wrap;html=1;fillColor=#d5e8d4;strokeColor=#82b366;" vertex="1" parent="1">
          <mxGeometry x="800" y="-1014" width="60" height="60" as="geometry" />
        </mxCell>
        <mxCell id="nxlRNslHRVkKdTCAfa-e-38" value="User" style="swimlane;fontStyle=0;childLayout=stackLayout;horizontal=1;startSize=30;horizontalStack=0;resizeParent=1;resizeParentMax=0;resizeLast=0;collapsible=1;marginBottom=0;whiteSpace=wrap;html=1;fillColor=default;" vertex="1" parent="1">
          <mxGeometry x="620" y="-1054" width="100" height="120" as="geometry">
            <mxRectangle x="610" y="250" width="60" height="30" as="alternateBounds" />
          </mxGeometry>
        </mxCell>
        <mxCell id="nxlRNslHRVkKdTCAfa-e-39" value="Auth" style="text;strokeColor=#666666;fillColor=#f5f5f5;align=left;verticalAlign=middle;spacingLeft=4;spacingRight=4;overflow=hidden;points=[[0,0.5],[1,0.5]];portConstraint=eastwest;rotatable=0;whiteSpace=wrap;html=1;fontColor=#333333;" vertex="1" parent="nxlRNslHRVkKdTCAfa-e-38">
          <mxGeometry y="30" width="100" height="30" as="geometry" />
        </mxCell>
        <mxCell id="nxlRNslHRVkKdTCAfa-e-40" value="Tockens" style="text;strokeColor=#666666;fillColor=#f5f5f5;align=left;verticalAlign=middle;spacingLeft=4;spacingRight=4;overflow=hidden;points=[[0,0.5],[1,0.5]];portConstraint=eastwest;rotatable=0;whiteSpace=wrap;html=1;fontColor=#333333;" vertex="1" parent="nxlRNslHRVkKdTCAfa-e-38">
          <mxGeometry y="60" width="100" height="30" as="geometry" />
        </mxCell>
        <mxCell id="nxlRNslHRVkKdTCAfa-e-41" value="Registration" style="text;strokeColor=#666666;fillColor=#f5f5f5;align=left;verticalAlign=middle;spacingLeft=4;spacingRight=4;overflow=hidden;points=[[0,0.5],[1,0.5]];portConstraint=eastwest;rotatable=0;whiteSpace=wrap;html=1;fontColor=#333333;" vertex="1" parent="nxlRNslHRVkKdTCAfa-e-38">
          <mxGeometry y="90" width="100" height="30" as="geometry" />
        </mxCell>
        <mxCell id="nxlRNslHRVkKdTCAfa-e-42" value="" style="group" vertex="1" connectable="0" parent="1">
          <mxGeometry x="730" y="-994" width="50" height="20" as="geometry" />
        </mxCell>
        <mxCell id="nxlRNslHRVkKdTCAfa-e-43" value="" style="endArrow=classic;html=1;rounded=0;" edge="1" parent="nxlRNslHRVkKdTCAfa-e-42">
          <mxGeometry width="50" height="50" relative="1" as="geometry">
            <mxPoint as="sourcePoint" />
            <mxPoint x="50" as="targetPoint" />
          </mxGeometry>
        </mxCell>
        <mxCell id="nxlRNslHRVkKdTCAfa-e-44" value="" style="endArrow=classic;html=1;rounded=0;" edge="1" parent="nxlRNslHRVkKdTCAfa-e-42">
          <mxGeometry width="50" height="50" relative="1" as="geometry">
            <mxPoint x="50" y="20" as="sourcePoint" />
            <mxPoint y="20" as="targetPoint" />
          </mxGeometry>
        </mxCell>
        <mxCell id="nxlRNslHRVkKdTCAfa-e-45" value="Api Getaway" style="rounded=0;whiteSpace=wrap;html=1;" vertex="1" parent="1">
          <mxGeometry x="335" y="-494" width="120" height="60" as="geometry" />
        </mxCell>
        <mxCell id="nxlRNslHRVkKdTCAfa-e-64" value="" style="group" vertex="1" connectable="0" parent="1">
          <mxGeometry x="790" y="-284" width="70" height="55" as="geometry" />
        </mxCell>
        <mxCell id="nxlRNslHRVkKdTCAfa-e-60" value="" style="rhombus;whiteSpace=wrap;html=1;fillColor=#f8cecc;strokeColor=#b85450;" vertex="1" parent="nxlRNslHRVkKdTCAfa-e-64">
          <mxGeometry y="24.444444444444446" width="70" height="30.555555555555554" as="geometry" />
        </mxCell>
        <mxCell id="nxlRNslHRVkKdTCAfa-e-62" value="" style="rhombus;whiteSpace=wrap;html=1;fillColor=#f8cecc;strokeColor=#b85450;" vertex="1" parent="nxlRNslHRVkKdTCAfa-e-64">
          <mxGeometry y="12.222222222222223" width="70" height="30.555555555555554" as="geometry" />
        </mxCell>
        <mxCell id="nxlRNslHRVkKdTCAfa-e-63" value="RabbitMQ" style="rhombus;whiteSpace=wrap;html=1;fillColor=#f8cecc;strokeColor=#b85450;" vertex="1" parent="nxlRNslHRVkKdTCAfa-e-64">
          <mxGeometry width="70" height="30.555555555555554" as="geometry" />
        </mxCell>
      </root>
    </mxGraphModel>
  </diagram>
</mxfile>
